<svg width="32" height="32" viewBox="0 0 32 32" fill="none" xmlns="http://www.w3.org/2000/svg">
<rect width="32" height="32" rx="16" fill="#1F7FD7"/>
<path d="M16.475 20.825L24.85 12.45L23.55 11.15L15.175 19.525L16.475 20.825ZM9.95 23C8.28333 22.9167 7.04167 22.5667 6.225 21.95C5.40833 21.3333 5 20.4417 5 19.275C5 18.1917 5.44583 17.3125 6.3375 16.6375C7.22917 15.9625 8.46667 15.5583 10.05 15.425C10.7 15.375 11.1875 15.2708 11.5125 15.1125C11.8375 14.9542 12 14.7333 12 14.45C12 14.0167 11.7542 13.6917 11.2625 13.475C10.7708 13.2583 9.95833 13.1 8.825 13L9 11C10.7167 11.1333 11.9792 11.4792 12.7875 12.0375C13.5958 12.5958 14 13.4 14 14.45C14 15.3333 13.6792 16.025 13.0375 16.525C12.3958 17.025 11.45 17.325 10.2 17.425C9.13333 17.5083 8.33333 17.7042 7.8 18.0125C7.26667 18.3208 7 18.7417 7 19.275C7 19.8583 7.23333 20.2792 7.7 20.5375C8.16667 20.7958 8.95 20.95 10.05 21L9.95 23ZM16.95 23.175L12.825 19.05L22.375 9.5C22.7083 9.16667 23.1042 9 23.5625 9C24.0208 9 24.4167 9.16667 24.75 9.5L26.5 11.25C26.8333 11.5833 27 11.9792 27 12.4375C27 12.8958 26.8333 13.2917 26.5 13.625L16.95 23.175ZM12.975 24C12.6917 24.0667 12.4417 23.9917 12.225 23.775C12.0083 23.5583 11.9333 23.3083 12 23.025L12.825 19.05L16.95 23.175L12.975 24Z" fill="#F8F4F9"/>
</svg>
